<mxfile host="app.diagrams.net" modified="2023-12-08T17:29:14.539Z" agent="Mozilla/5.0 (Macintosh; Intel Mac OS X 10_15_7) AppleWebKit/537.36 (KHTML, like Gecko) Chrome/119.0.0.0 Safari/537.36" etag="NHKpM6oM07mlh0Zl3o6Q" version="22.1.7" type="github">
  <diagram name="Page-1" id="FDXaYBwRhG_A8-mdK8wv">
    <mxGraphModel dx="794" dy="419" grid="1" gridSize="10" guides="1" tooltips="1" connect="1" arrows="1" fold="1" page="1" pageScale="1" pageWidth="850" pageHeight="1100" math="0" shadow="0">
      <root>
        <mxCell id="0" />
        <mxCell id="1" parent="0" />
        <mxCell id="TWeQiFtrZ5BaUIxIDIPl-1" value="App" style="rounded=0;whiteSpace=wrap;html=1;verticalAlign=top;fontSize=27;" vertex="1" parent="1">
          <mxGeometry x="10" y="10" width="800" height="420" as="geometry" />
        </mxCell>
        <mxCell id="TWeQiFtrZ5BaUIxIDIPl-2" value="&lt;font style=&quot;font-size: 20px;&quot;&gt;Header&lt;/font&gt;" style="rounded=0;whiteSpace=wrap;html=1;" vertex="1" parent="1">
          <mxGeometry x="30" y="50" width="760" height="60" as="geometry" />
        </mxCell>
        <mxCell id="TWeQiFtrZ5BaUIxIDIPl-3" value="InventoryControl&lt;br style=&quot;font-size: 19px;&quot;&gt;&lt;font style=&quot;font-size: 10px;&quot;&gt;This&lt;/font&gt;&lt;font size=&quot;1&quot; style=&quot;&quot;&gt;&amp;nbsp;component will determine if StockList, NewStockItemForm, or StockItemDetail is displayed.&amp;nbsp; It will hold shared state required by all three.&lt;/font&gt;" style="rounded=0;whiteSpace=wrap;html=1;verticalAlign=top;fontSize=20;" vertex="1" parent="1">
          <mxGeometry x="30" y="121" width="760" height="290" as="geometry" />
        </mxCell>
        <mxCell id="TWeQiFtrZ5BaUIxIDIPl-4" value="&lt;font style=&quot;font-size: 20px;&quot;&gt;StockList&lt;/font&gt;" style="rounded=0;whiteSpace=wrap;html=1;verticalAlign=top;fontSize=17;" vertex="1" parent="1">
          <mxGeometry x="40" y="180" width="240" height="220" as="geometry" />
        </mxCell>
        <mxCell id="TWeQiFtrZ5BaUIxIDIPl-5" value="&lt;font style=&quot;&quot;&gt;&lt;font style=&quot;font-size: 20px;&quot;&gt;NewStockItemForm&lt;/font&gt;&lt;br&gt;&lt;br&gt;This will contain form fields to add a new item to the stock list.&lt;br&gt;&lt;/font&gt;" style="rounded=0;whiteSpace=wrap;html=1;verticalAlign=top;" vertex="1" parent="1">
          <mxGeometry x="290" y="180" width="240" height="220" as="geometry" />
        </mxCell>
        <mxCell id="TWeQiFtrZ5BaUIxIDIPl-7" value="New Stock Item&lt;br style=&quot;font-size: 13px;&quot;&gt;&lt;font size=&quot;1&quot;&gt;Clicking this will display NewStockItemForm&amp;nbsp;&lt;/font&gt;" style="rounded=0;whiteSpace=wrap;html=1;verticalAlign=top;fontSize=14;" vertex="1" parent="1">
          <mxGeometry x="50" y="330" width="220" height="60" as="geometry" />
        </mxCell>
        <mxCell id="TWeQiFtrZ5BaUIxIDIPl-9" value="Add Item to Stock&lt;br style=&quot;font-size: 13px;&quot;&gt;&lt;font size=&quot;1&quot;&gt;Clicking this will add the new item to the StockList and return to displaying StockList&lt;/font&gt;" style="rounded=0;whiteSpace=wrap;html=1;verticalAlign=top;fontSize=14;" vertex="1" parent="1">
          <mxGeometry x="300" y="330" width="220" height="60" as="geometry" />
        </mxCell>
        <mxCell id="TWeQiFtrZ5BaUIxIDIPl-10" value="&lt;font style=&quot;font-size: 14px;&quot;&gt;Stock Item&lt;/font&gt;" style="rounded=0;whiteSpace=wrap;html=1;" vertex="1" parent="1">
          <mxGeometry x="50" y="210" width="220" height="20" as="geometry" />
        </mxCell>
        <mxCell id="TWeQiFtrZ5BaUIxIDIPl-11" value="&lt;font style=&quot;font-size: 14px;&quot;&gt;Stock Item&lt;/font&gt;" style="rounded=0;whiteSpace=wrap;html=1;" vertex="1" parent="1">
          <mxGeometry x="50" y="240" width="220" height="20" as="geometry" />
        </mxCell>
        <mxCell id="TWeQiFtrZ5BaUIxIDIPl-12" value="&lt;font style=&quot;font-size: 14px;&quot;&gt;Stock Item&lt;/font&gt;" style="rounded=0;whiteSpace=wrap;html=1;" vertex="1" parent="1">
          <mxGeometry x="50" y="270" width="220" height="20" as="geometry" />
        </mxCell>
        <mxCell id="TWeQiFtrZ5BaUIxIDIPl-13" value="&lt;font style=&quot;font-size: 14px;&quot;&gt;Stock Item&lt;/font&gt;" style="rounded=0;whiteSpace=wrap;html=1;" vertex="1" parent="1">
          <mxGeometry x="50" y="300" width="220" height="20" as="geometry" />
        </mxCell>
        <mxCell id="TWeQiFtrZ5BaUIxIDIPl-16" value="&lt;font style=&quot;&quot;&gt;&lt;span style=&quot;font-size: 20px;&quot;&gt;StockItemDetail&lt;/span&gt;&lt;br&gt;This will contain a form field for each of the selected item&#39;s properties, with the displayed value corresponding to its current state.&amp;nbsp; They will be editable and will update when the user clicks the update button.&lt;br&gt;&lt;/font&gt;" style="rounded=0;whiteSpace=wrap;html=1;verticalAlign=top;" vertex="1" parent="1">
          <mxGeometry x="540" y="180" width="240" height="220" as="geometry" />
        </mxCell>
        <mxCell id="TWeQiFtrZ5BaUIxIDIPl-17" value="&lt;font style=&quot;&quot;&gt;&lt;span style=&quot;font-size: 14px;&quot;&gt;Update Item&lt;/span&gt;&lt;br&gt;&lt;font style=&quot;font-size: 8px;&quot;&gt;Clicking this will update the item&#39;s properties to the input values and return to displaying StockList&lt;/font&gt;&lt;br&gt;&lt;/font&gt;" style="rounded=0;whiteSpace=wrap;html=1;verticalAlign=top;" vertex="1" parent="1">
          <mxGeometry x="550" y="300" width="100" height="90" as="geometry" />
        </mxCell>
        <mxCell id="TWeQiFtrZ5BaUIxIDIPl-18" value="&lt;font style=&quot;&quot;&gt;&lt;span style=&quot;font-size: 14px;&quot;&gt;Delete Item&lt;/span&gt;&lt;br&gt;&lt;font style=&quot;font-size: 8px;&quot;&gt;Clicking this will delete the selected item and return to displaying StockList&lt;/font&gt;&lt;br&gt;&lt;/font&gt;" style="rounded=0;whiteSpace=wrap;html=1;verticalAlign=top;" vertex="1" parent="1">
          <mxGeometry x="670" y="300" width="100" height="90" as="geometry" />
        </mxCell>
      </root>
    </mxGraphModel>
  </diagram>
</mxfile>
